<svg version="1.1" xmlns="http://www.w3.org/2000/svg" xmlns:xlink="http://www.w3.org/1999/xlink" width="24px" height="24px" viewBox="0,0,256,256"><g fill="#fc2424" fill-rule="nonzero" stroke="none" stroke-width="1" stroke-linecap="butt" stroke-linejoin="miter" stroke-miterlimit="10" stroke-dasharray="" stroke-dashoffset="0" font-family="none" font-weight="none" font-size="none" text-anchor="none" style="mix-blend-mode: normal"><g transform="translate(0,-5.33333) scale(10.66667,10.66667)"><path d="M21,19v1h-18v-1l2,-2v-6c0,-3.1 2.03,-5.83 5,-6.71c0,-0.1 0,-0.19 0,-0.29c0,-1.10457 0.89543,-2 2,-2c1.10457,0 2,0.89543 2,2c0,0.1 0,0.19 0,0.29c2.97,0.88 5,3.61 5,6.71v6l2,2M14,21c0,1.10457 -0.89543,2 -2,2c-1.10457,0 -2,-0.89543 -2,-2M19.75,3.19l-1.42,1.42c1.71,1.69 2.67,3.99 2.67,6.39h2c0,-2.93 -1.16,-5.75 -3.25,-7.81M1,11h2c0,-2.4 0.96,-4.7 2.67,-6.39l-1.42,-1.42c-2.09,2.06 -3.25,4.88 -3.25,7.81z"></path></g></g></svg>