<svg version="1.1" xmlns="http://www.w3.org/2000/svg" xmlns:xlink="http://www.w3.org/1999/xlink" width="24px" height="24px" viewBox="0,0,256,256"><g fill="#ffffff" fill-rule="nonzero" stroke="none" stroke-width="1" stroke-linecap="butt" stroke-linejoin="miter" stroke-miterlimit="10" stroke-dasharray="" stroke-dashoffset="0" font-family="none" font-weight="none" font-size="none" text-anchor="none" style="mix-blend-mode: normal"><g transform="scale(10.66667,10.66667)"><path d="M22,3h-20c-1.09,0.04 -1.96,0.91 -2,2v14c0.04,1.09 0.91,1.96 2,2h20c1.09,-0.04 1.96,-0.91 2,-2v-14c-0.04,-1.09 -0.91,-1.96 -2,-2M22,19h-20v-14h20v14M14,17v-1.25c0,-1.66 -3.34,-2.5 -5,-2.5c-1.66,0 -5,0.84 -5,2.5v1.25h10M9,7c-1.38071,0 -2.5,1.11929 -2.5,2.5c0,1.38071 1.11929,2.5 2.5,2.5c1.38071,0 2.5,-1.11929 2.5,-2.5c0,-1.38071 -1.11929,-2.5 -2.5,-2.5M14,7v1h6v-1h-6M14,9v1h6v-1h-6M14,11v1h4v-1h-4"></path></g></g></svg>