<svg version="1.1" xmlns="http://www.w3.org/2000/svg" xmlns:xlink="http://www.w3.org/1999/xlink" width="24px" height="24px" viewBox="0,0,256,256"><g fill="#ffffff" fill-rule="nonzero" stroke="none" stroke-width="1" stroke-linecap="butt" stroke-linejoin="miter" stroke-miterlimit="10" stroke-dasharray="" stroke-dashoffset="0" font-family="none" font-weight="none" font-size="none" text-anchor="none" style="mix-blend-mode: normal"><g transform="scale(10.66667,10.66667)"><path d="M11,18h2v-2h-2v2M12,6c-2.20914,0 -4,1.79086 -4,4h2c0,-1.10457 0.89543,-2 2,-2c1.10457,0 2,0.89543 2,2c0,2 -3,1.75 -3,5h2c0,-2.25 3,-2.5 3,-5c0,-2.20914 -1.79086,-4 -4,-4M5,3h14c1.10457,0 2,0.89543 2,2v14c0,1.10457 -0.89543,2 -2,2h-14c-1.10457,0 -2,-0.89543 -2,-2v-14c0,-1.10457 0.89543,-2 2,-2z"></path></g></g></svg>